<?xml version="1.0" encoding="UTF-8"?>
<svg id="Layer_1" data-name="Layer 1" xmlns="http://www.w3.org/2000/svg" viewBox="0 0 282.47 95.7">
  <defs>
    <style>
      .cls-1 {
        fill: #010101;
      }

      .cls-2 {
        fill: #df5a41;
      }

      .cls-3 {
        fill: #231f20;
      }

      .cls-4 {
        fill: #57b27f;
      }

      .cls-5 {
        fill: #47aac6;
      }
    </style>
  </defs>
  <path class="cls-1" d="M56.83,89.4c-.07-.26-.16-.5-.27-.71-.12-.22-.27-.4-.45-.56-.18-.16-.4-.28-.64-.37-.24-.09-.53-.13-.85-.13-.47,0-.88,.1-1.23,.29-.35,.19-.63,.45-.84,.77-.22,.32-.38,.69-.48,1.09-.1,.41-.16,.83-.16,1.25s.05,.84,.16,1.25c.1,.41,.26,.77,.48,1.09,.21,.32,.5,.58,.84,.77,.35,.19,.75,.29,1.23,.29,.35,0,.66-.06,.92-.18,.27-.12,.49-.29,.69-.5,.19-.21,.34-.46,.45-.74,.11-.28,.18-.59,.21-.91h1.52c-.03,.53-.15,1.02-.34,1.46-.2,.44-.46,.82-.79,1.14-.33,.32-.72,.57-1.17,.74-.45,.17-.94,.26-1.48,.26-.67,0-1.26-.12-1.79-.37-.53-.25-.98-.58-1.34-1.01-.37-.42-.65-.92-.84-1.49-.19-.57-.29-1.17-.29-1.82s.1-1.23,.29-1.8c.2-.57,.48-1.06,.84-1.49,.37-.42,.81-.76,1.34-1.01,.53-.25,1.12-.38,1.79-.38,.5,0,.97,.07,1.41,.21,.44,.14,.83,.34,1.16,.6,.34,.26,.61,.58,.82,.96,.21,.38,.34,.8,.39,1.29h-1.56Z"/>
  <polygon class="cls-1" points="73.5 86.56 75.06 86.56 75.06 90.11 79.11 90.11 79.11 86.56 80.67 86.56 80.67 95.49 79.11 95.49 79.11 91.46 75.06 91.46 75.06 95.49 73.5 95.49 73.5 86.56"/>
  <polygon class="cls-1" points="96.25 86.56 102.66 86.56 102.66 87.91 97.81 87.91 97.81 90.25 102.3 90.25 102.3 91.53 97.81 91.53 97.81 94.14 102.75 94.14 102.75 95.49 96.25 95.49 96.25 86.56"/>
  <polygon class="cls-1" points="117.79 86.56 119.99 86.56 122.44 93.55 122.47 93.55 124.86 86.56 127.03 86.56 127.03 95.49 125.55 95.49 125.55 88.6 125.52 88.6 123.05 95.49 121.77 95.49 119.3 88.6 119.28 88.6 119.28 95.49 117.79 95.49 117.79 86.56"/>
  <rect class="cls-1" x="142.61" y="86.56" width="1.56" height="8.93"/>
  <path class="cls-1" d="M165.8,89.4c-.07-.26-.16-.5-.27-.71-.12-.22-.27-.4-.45-.56-.18-.16-.4-.28-.64-.37-.25-.09-.53-.13-.85-.13-.47,0-.88,.1-1.23,.29-.35,.19-.63,.45-.84,.77-.22,.32-.38,.69-.48,1.09-.11,.41-.16,.83-.16,1.25s.05,.84,.16,1.25c.1,.41,.26,.77,.48,1.09,.21,.32,.5,.58,.84,.77,.34,.19,.75,.29,1.23,.29,.35,0,.66-.06,.92-.18,.27-.12,.49-.29,.68-.5,.19-.21,.34-.46,.45-.74,.11-.28,.18-.59,.21-.91h1.52c-.03,.53-.15,1.02-.34,1.46-.2,.44-.46,.82-.79,1.14-.33,.32-.72,.57-1.17,.74-.45,.17-.94,.26-1.48,.26-.67,0-1.26-.12-1.79-.37-.53-.25-.98-.58-1.34-1.01-.37-.42-.65-.92-.84-1.49-.2-.57-.29-1.17-.29-1.82s.1-1.23,.29-1.8c.19-.57,.47-1.06,.84-1.49,.36-.42,.81-.76,1.34-1.01,.53-.25,1.12-.38,1.79-.38,.5,0,.97,.07,1.41,.21,.44,.14,.83,.34,1.16,.6,.34,.26,.61,.58,.82,.96,.21,.38,.34,.8,.39,1.29h-1.56Z"/>
  <path class="cls-1" d="M184.89,86.56h1.66l3.43,8.93h-1.67l-.83-2.36h-3.55l-.83,2.36h-1.61l3.41-8.93Zm-.55,5.38h2.72l-1.33-3.84h-.04l-1.35,3.84Z"/>
  <polygon class="cls-1" points="204.53 86.56 206.09 86.56 206.09 94.14 210.62 94.14 210.62 95.49 204.53 95.49 204.53 86.56"/>
  <path class="cls-1" d="M226.42,92.51c0,.34,.06,.63,.17,.88,.12,.24,.28,.44,.49,.59,.21,.16,.45,.27,.72,.34,.27,.07,.56,.11,.88,.11,.34,0,.63-.04,.87-.12,.24-.08,.44-.18,.59-.31,.15-.12,.26-.27,.32-.43,.07-.16,.1-.33,.1-.49,0-.34-.08-.59-.23-.76-.15-.16-.32-.28-.51-.34-.32-.12-.68-.23-1.1-.33-.42-.11-.94-.24-1.55-.41-.38-.1-.7-.23-.95-.39-.25-.16-.45-.34-.6-.54-.15-.2-.26-.41-.32-.64-.06-.22-.09-.45-.09-.69,0-.45,.09-.84,.28-1.17,.19-.33,.43-.6,.74-.82,.31-.22,.66-.38,1.05-.48,.39-.1,.79-.16,1.18-.16,.46,0,.9,.06,1.32,.18,.41,.12,.77,.3,1.08,.54,.31,.24,.56,.54,.74,.89,.18,.35,.27,.77,.27,1.23h-1.56c-.04-.58-.24-.98-.58-1.22-.35-.24-.79-.36-1.33-.36-.18,0-.37,.02-.56,.06-.19,.04-.37,.1-.52,.19-.16,.09-.29,.21-.39,.36-.1,.15-.16,.34-.16,.56,0,.32,.1,.57,.29,.74,.2,.18,.45,.32,.77,.41,.03,0,.16,.04,.39,.11,.23,.06,.48,.13,.77,.21,.28,.07,.56,.15,.83,.22,.27,.07,.46,.12,.58,.16,.29,.09,.54,.22,.76,.38,.22,.16,.4,.34,.54,.54,.15,.2,.25,.42,.32,.66,.07,.23,.11,.47,.11,.7,0,.5-.1,.93-.31,1.28-.2,.36-.47,.64-.8,.87-.33,.23-.71,.39-1.14,.49-.42,.1-.86,.16-1.3,.16-.51,0-.99-.06-1.43-.19-.45-.12-.84-.32-1.17-.58-.33-.26-.6-.59-.8-.99-.2-.4-.3-.88-.31-1.43h1.56Z"/>
  <path class="cls-3" d="M72.65,21.1h13.68c8,10.12,16.06,20.3,24.11,30.49,.13-.04,.25-.09,.38-.13V21.14h13.26v52.22h-13.73c-7.83-10.13-15.75-20.39-23.67-30.64-.11,.03-.22,.06-.33,.09v30.53h-13.71V21.1Z"/>
  <path class="cls-3" d="M244.84,21.17c8.02,10.15,16.06,20.32,24.42,30.89V21.13h13.21v52.24h-13.65c-7.91-10.24-15.85-20.53-24.09-31.19v31.17h-13.55V21.17h13.66Z"/>
  <path class="cls-3" d="M190.44,53.17c1.83-5.23,3.66-10.32,5.44-15.41l.19-.54,12.43,35.56c.08,.19,.15,.39,.22,.58h14.79c-6.51-17.51-12.96-34.86-19.41-52.23h-15.75c-6.47,17.38-12.92,34.73-19.43,52.23h14.58l6.95-20.19Z"/>
  <path class="cls-3" d="M31.39,34.93c-2.99-2.54-6.24-4.05-10.05-4.12-.85-.01-1.72,.04-2.55,.21-1.78,.36-2.86,1.52-3.14,3.22-.34,1.99,.08,3.29,1.9,4.17,2.94,1.4,6.05,2.48,9.02,3.82,2.09,.95,4.24,1.89,6.09,3.22,9.25,6.69,8.64,20.41-1.24,26.38-7.98,4.83-16.3,4.69-24.63,.89-2.28-1.04-4.41-2.4-6.79-3.71,1.87-3.62,3.64-7.07,5.29-10.26,2.72,1.36,5.24,2.92,7.96,3.9,3.24,1.17,6.64,1.14,9.88-.34,1.29-.59,2.26-1.43,2.32-2.99,.07-1.59-.44-2.91-1.93-3.57-2.79-1.24-5.65-2.3-8.43-3.57-2.28-1.04-4.67-2.01-6.69-3.46C-1.63,41.53,.11,26.02,11.5,20.89c6.58-2.96,13.09-2.08,19.48,.67,1.95,.84,3.78,1.96,5.81,3.02-1.85,3.55-3.59,6.89-5.39,10.35"/>
  <polygon class="cls-3" points="141.69 33.55 130.88 33.55 130.88 21.18 166.61 21.18 166.61 33.5 155.92 33.5 155.92 73.44 141.69 73.44 141.69 33.55"/>
  <rect class="cls-3" x="47.19" y="21.12" width="13.52" height="52.21"/>
  <polygon class="cls-2" points="196 73.37 203.69 73.37 199.85 62.31 196 51.25 192.15 62.31 188.31 73.37 196 73.37"/>
  <path class="cls-5" d="M61.39,7.47c0,4.12-3.34,7.47-7.47,7.47s-7.47-3.34-7.47-7.47,3.34-7.47,7.47-7.47,7.47,3.34,7.47,7.47"/>
  <path class="cls-4" d="M261.55,21.16h-11.34l14.46,18.31,.05-15.13c0-1.75-1.41-3.17-3.16-3.17"/>
</svg>